<svg width="40" height="41" fill="none" xmlns="http://www.w3.org/2000/svg"><path fill-rule="evenodd" clip-rule="evenodd" d="M20 38.207a17.5 17.5 0 100-35 17.5 17.5 0 000 35zm0 2.5a20 20 0 100-40 20 20 0 000 40z" fill="#fff"/><path fill-rule="evenodd" clip-rule="evenodd" d="M11.615 21.592a1.25 1.25 0 001.77 0L20 14.975l6.615 6.617a1.252 1.252 0 101.77-1.77l-7.5-7.5a1.25 1.25 0 00-1.77 0l-7.5 7.5a1.25 1.25 0 000 1.77z" fill="#fff"/><path fill-rule="evenodd" clip-rule="evenodd" d="M20 29.457a1.25 1.25 0 001.25-1.25v-12.5a1.25 1.25 0 00-2.5 0v12.5a1.25 1.25 0 001.25 1.25z" fill="#fff"/></svg>