<svg width="40" height="41" fill="none" xmlns="http://www.w3.org/2000/svg"><mask id="a" maskUnits="userSpaceOnUse" x="0" y="0" width="40" height="41"><circle cx="20" cy="20.768" r="20" fill="#fff"/></mask><g mask="url(#a)"><path d="M19.995 14.099c-3.673 0-6.67 2.997-6.67 6.67 0 3.672 2.997 6.669 6.67 6.669 3.672 0 6.669-2.997 6.669-6.67 0-3.672-2.997-6.67-6.67-6.67zm20.003 6.67c0-2.763.025-5.5-.13-8.256-.155-3.202-.886-6.044-3.227-8.386C34.294 1.78 31.457 1.055 28.255.9 25.493.745 22.756.77 20 .77c-2.762 0-5.5-.025-8.256.13-3.202.155-6.044.885-8.385 3.227C1.012 6.474.287 9.311.132 12.513c-.156 2.762-.13 5.498-.13 8.255 0 2.757-.026 5.499.13 8.256.155 3.202.885 6.044 3.227 8.386 2.346 2.346 5.183 3.072 8.385 3.227 2.762.155 5.499.13 8.256.13 2.761 0 5.498.025 8.255-.13 3.202-.155 6.044-.886 8.386-3.227 2.346-2.347 3.072-5.184 3.227-8.386.16-2.757.13-5.494.13-8.256zM19.995 31.03A10.247 10.247 0 019.733 20.768a10.247 10.247 0 0110.262-10.262 10.247 10.247 0 0110.261 10.262A10.247 10.247 0 0119.995 31.03zm10.682-18.547a2.394 2.394 0 01-2.397-2.397 2.394 2.394 0 012.397-2.397 2.394 2.394 0 012.215 3.315 2.393 2.393 0 01-2.215 1.479z" fill="url(#paint0_radial)"/></g><defs><radialGradient id="paint0_radial" cx="0" cy="0" r="1" gradientUnits="userSpaceOnUse" gradientTransform="rotate(-90 27.237 16.612) scale(39.643)"><stop stop-color="#FD5"/><stop offset=".1" stop-color="#FD5"/><stop offset=".5" stop-color="#FF543E"/><stop offset="1" stop-color="#C837AB"/></radialGradient></defs></svg>