<svg width="150" height="86" fill="none" xmlns="http://www.w3.org/2000/svg"><g clip-path="url(#clip0)"><path d="M141.612 1.199H8.388c-4.36 0-7.895 3.522-7.895 7.867v68.22c0 4.346 3.535 7.868 7.895 7.868h133.224c4.36 0 7.895-3.522 7.895-7.867V9.066c0-4.345-3.535-7.867-7.895-7.867z" stroke="url(#paint0_linear)" stroke-width="2"/><path d="M25.668 32.854h-8.083v-1.17h17.27v1.17h-8.013v22.922h-1.174V32.854zm12.826-1.17h1.278v24.092h-1.278V31.683zm29.8 0v24.092h-1.278V32.854h-.311L58.07 55.019h-1.796l-8.67-22.165h-.276v22.922H46.05V31.683h2.59l8.532 21.89 8.531-21.89h2.59zm7.637 1.135v10.91h10.81v1.136h-10.81v10.91h-1.278V31.684h13.85v1.136H75.931zm29.822 21.787v1.17h-13.02V31.683h1.277v22.923h11.743zm3.709-22.923h1.278v24.093h-1.278V31.683zm13.082 12.115l-7.806-12.115h1.485l7.15 11.255 7.184-11.255h1.485l-7.771 12.184 7.771 11.909h-1.485l-7.115-11.083-7.219 11.083h-1.485l7.806-11.978z" fill="url(#paint1_linear)"/></g><defs><linearGradient id="paint0_linear" x1="75" y1="1.691" x2="75" y2="86.998" gradientUnits="userSpaceOnUse"><stop stop-color="#fff"/><stop offset="1" stop-color="#fff" stop-opacity="0"/></linearGradient><linearGradient id="paint1_linear" x1=".987" y1="84.937" x2="158.546" y2="58.364" gradientUnits="userSpaceOnUse"><stop stop-color="#4395C8"/><stop offset="1" stop-color="#D6E4F7"/></linearGradient><clipPath id="clip0"><path fill="#fff" transform="translate(0 .707)" d="M0 0h150v85.061H0z"/></clipPath></defs></svg>