<svg width="40" height="41" fill="none" xmlns="http://www.w3.org/2000/svg"><path d="M15.605 24.76a1.998 1.998 0 01-2.008-1.984c0-1.113.895-2.008 2.008-2.008 1.097 0 1.984.895 1.984 2.008a1.988 1.988 0 01-1.984 1.984zM40 20.768c0 11.049-8.952 20-20 20s-20-8.951-20-20c0-11.048 8.952-20 20-20s20 8.952 20 20zm-10.67-3.322a2.7 2.7 0 00-1.919.806c-1.806-1.25-4.242-2.056-6.943-2.145l1.403-6.314 4.468 1.008c0 1.096.895 1.983 1.984 1.983a2.013 2.013 0 002.008-2.008 2.013 2.013 0 00-2.008-2.008c-.783 0-1.452.468-1.783 1.113l-4.935-1.097c-.242-.064-.492.113-.557.355l-1.54 6.968c-2.677.113-5.089.911-6.895 2.161a2.672 2.672 0 00-1.944-.822c-2.814 0-3.734 3.782-1.16 5.064a5.821 5.821 0 00-.138 1.25c0 4.242 4.774 7.678 10.645 7.678 5.895 0 10.67-3.436 10.67-7.678 0-.427-.049-.87-.154-1.274 2.524-1.29 1.597-5.04-1.201-5.04zm-5.556 9.37c-1.468 1.468-6.137 1.444-7.548 0a.487.487 0 00-.67 0c-.201.202-.201.517 0 .694 1.84 1.839 7.04 1.839 8.888 0 .201-.177.201-.492 0-.693a.487.487 0 00-.67 0zm.621-6.048a1.993 1.993 0 00-1.984 2.008c0 1.097.895 1.984 1.984 1.984a1.998 1.998 0 002.008-1.984 1.998 1.998 0 00-2.008-2.008z" fill="#FF4500"/></svg>