<svg width="40" height="41" fill="none" xmlns="http://www.w3.org/2000/svg"><path d="M20 .768c-11.045 0-20 8.956-20 20 0 11.045 8.955 20 20 20s20-8.955 20-20c0-11.044-8.955-20-20-20zm9.612 15.076c.013.21.013.429.013.643 0 6.554-4.991 14.103-14.112 14.103-2.812 0-5.42-.817-7.616-2.224.402.045.786.063 1.197.063a9.947 9.947 0 006.156-2.116 4.96 4.96 0 01-4.634-3.438c.764.112 1.451.112 2.237-.089a4.956 4.956 0 01-3.97-4.866v-.062c.657.37 1.43.598 2.238.63a4.962 4.962 0 01-2.21-4.126c0-.924.24-1.768.674-2.5a14.076 14.076 0 0010.223 5.183c-.7-3.37 1.817-6.098 4.844-6.098 1.428 0 2.714.598 3.62 1.562a9.793 9.793 0 003.148-1.192 4.935 4.935 0 01-2.179 2.728c1-.107 1.964-.384 2.857-.772a10.392 10.392 0 01-2.486 2.571z" fill="#55ACEE"/></svg>