<svg width="40" height="41" viewBox="0 0 40 41" fill="none" xmlns="http://www.w3.org/2000/svg">
<path fill-rule="evenodd" clip-rule="evenodd" d="M20 38.2073C24.6413 38.2073 29.0925 36.3635 32.3744 33.0816C35.6563 29.7998 37.5 25.3486 37.5 20.7073C37.5 16.066 35.6563 11.6148 32.3744 8.33291C29.0925 5.05102 24.6413 3.20728 20 3.20728C15.3587 3.20728 10.9075 5.05102 7.62563 8.33291C4.34374 11.6148 2.5 16.066 2.5 20.7073C2.5 25.3486 4.34374 29.7998 7.62563 33.0816C10.9075 36.3635 15.3587 38.2073 20 38.2073ZM20 40.7073C25.3043 40.7073 30.3914 38.6001 34.1421 34.8494C37.8929 31.0987 40 26.0116 40 20.7073C40 15.4029 37.8929 10.3159 34.1421 6.56514C30.3914 2.81441 25.3043 0.707275 20 0.707275C14.6957 0.707275 9.60859 2.81441 5.85786 6.56514C2.10714 10.3159 0 15.4029 0 20.7073C0 26.0116 2.10714 31.0987 5.85786 34.8494C9.60859 38.6001 14.6957 40.7073 20 40.7073Z" fill="white"/>
<path fill-rule="evenodd" clip-rule="evenodd" d="M11.615 21.5923C11.7311 21.7087 11.869 21.8011 12.0209 21.8641C12.1728 21.9271 12.3356 21.9595 12.5 21.9595C12.6644 21.9595 12.8272 21.9271 12.9791 21.8641C13.1309 21.8011 13.2689 21.7087 13.385 21.5923L20 14.9748L26.615 21.5923C26.8497 21.827 27.168 21.9589 27.5 21.9589C27.8319 21.9589 28.1503 21.827 28.385 21.5923C28.6197 21.3576 28.7515 21.0393 28.7515 20.7073C28.7515 20.3754 28.6197 20.057 28.385 19.8223L20.885 12.3223C20.7689 12.2059 20.6309 12.1135 20.4791 12.0505C20.3272 11.9875 20.1644 11.9551 20 11.9551C19.8356 11.9551 19.6728 11.9875 19.5209 12.0505C19.369 12.1135 19.2311 12.2059 19.115 12.3223L11.615 19.8223C11.4986 19.9384 11.4062 20.0764 11.3432 20.2282C11.2802 20.3801 11.2477 20.5429 11.2477 20.7073C11.2477 20.8717 11.2802 21.0345 11.3432 21.1864C11.4062 21.3383 11.4986 21.4762 11.615 21.5923Z" fill="white"/>
<path fill-rule="evenodd" clip-rule="evenodd" d="M20 29.4573C20.3315 29.4573 20.6495 29.3256 20.8839 29.0912C21.1183 28.8567 21.25 28.5388 21.25 28.2073V15.7073C21.25 15.3758 21.1183 15.0578 20.8839 14.8234C20.6495 14.589 20.3315 14.4573 20 14.4573C19.6685 14.4573 19.3505 14.589 19.1161 14.8234C18.8817 15.0578 18.75 15.3758 18.75 15.7073V28.2073C18.75 28.5388 18.8817 28.8567 19.1161 29.0912C19.3505 29.3256 19.6685 29.4573 20 29.4573Z" fill="white"/>
</svg>
