<svg width="44" height="30" viewBox="0 0 44 30" fill="none" xmlns="http://www.w3.org/2000/svg">
<path fill-rule="evenodd" clip-rule="evenodd" d="M1.99992 0C1.55789 0 1.13397 0.175595 0.821407 0.488156C0.508847 0.800716 0.333252 1.22464 0.333252 1.66667C0.333252 2.10869 0.508847 2.53262 0.821407 2.84518C1.13397 3.15774 1.55789 3.33333 1.99992 3.33333H41.9999C42.4419 3.33333 42.8659 3.15774 43.1784 2.84518C43.491 2.53262 43.6666 2.10869 43.6666 1.66667C43.6666 1.22464 43.491 0.800716 43.1784 0.488156C42.8659 0.175595 42.4419 0 41.9999 0H1.99992ZM0.333252 15C0.333252 14.558 0.508847 14.134 0.821407 13.8215C1.13397 13.5089 1.55789 13.3333 1.99992 13.3333H41.9999C42.4419 13.3333 42.8659 13.5089 43.1784 13.8215C43.491 14.134 43.6666 14.558 43.6666 15C43.6666 15.442 43.491 15.8659 43.1784 16.1785C42.8659 16.4911 42.4419 16.6667 41.9999 16.6667H1.99992C1.55789 16.6667 1.13397 16.4911 0.821407 16.1785C0.508847 15.8659 0.333252 15.442 0.333252 15ZM0.333252 28.3333C0.333252 27.8913 0.508847 27.4674 0.821407 27.1548C1.13397 26.8423 1.55789 26.6667 1.99992 26.6667H41.9999C42.4419 26.6667 42.8659 26.8423 43.1784 27.1548C43.491 27.4674 43.6666 27.8913 43.6666 28.3333C43.6666 28.7754 43.491 29.1993 43.1784 29.5118C42.8659 29.8244 42.4419 30 41.9999 30H1.99992C1.55789 30 1.13397 29.8244 0.821407 29.5118C0.508847 29.1993 0.333252 28.7754 0.333252 28.3333Z" fill="white"/>
</svg>
