<svg width="40" height="41" viewBox="0 0 40 41" fill="none" xmlns="http://www.w3.org/2000/svg">
<mask id="mask0" mask-type="alpha" maskUnits="userSpaceOnUse" x="0" y="0" width="40" height="41">
<circle cx="20" cy="20.7683" r="20" fill="white"/>
</mask>
<g mask="url(#mask0)">
<path d="M19.9946 14.0988C16.3222 14.0988 13.3252 17.0958 13.3252 20.7683C13.3252 24.4408 16.3222 27.4378 19.9946 27.4378C23.667 27.4378 26.664 24.4408 26.664 20.7683C26.664 17.0958 23.667 14.0988 19.9946 14.0988ZM39.9978 20.7683C39.9978 18.0064 40.0228 15.2696 39.8677 12.5127C39.7126 9.31057 38.9821 6.46865 36.6406 4.12707C34.294 1.78048 31.4572 1.05499 28.2551 0.899887C25.4932 0.744782 22.7564 0.769799 19.9996 0.769799C17.2378 0.769799 14.501 0.744782 11.7442 0.899887C8.5421 1.05499 5.70023 1.78548 3.35869 4.12707C1.01215 6.47365 0.286675 9.31057 0.131574 12.5127C-0.0235283 15.2746 0.0014882 18.0114 0.0014882 20.7683C0.0014882 23.5252 -0.0235283 26.267 0.131574 29.0239C0.286675 32.2261 1.01716 35.068 3.35869 37.4096C5.70524 39.7561 8.5421 40.4816 11.7442 40.6367C14.506 40.7918 17.2428 40.7668 19.9996 40.7668C22.7614 40.7668 25.4982 40.7918 28.2551 40.6367C31.4572 40.4816 34.299 39.7511 36.6406 37.4096C38.9871 35.063 39.7126 32.2261 39.8677 29.0239C40.0278 26.267 39.9978 23.5302 39.9978 20.7683ZM19.9946 31.0302C14.3159 31.0302 9.73288 26.4471 9.73288 20.7683C9.73288 15.0895 14.3159 10.5064 19.9946 10.5064C25.6734 10.5064 30.2564 15.0895 30.2564 20.7683C30.2564 26.4471 25.6734 31.0302 19.9946 31.0302ZM30.6766 12.4827C29.3508 12.4827 28.2801 11.412 28.2801 10.0861C28.2801 8.7602 29.3508 7.68947 30.6766 7.68947C32.0025 7.68947 33.0732 8.7602 33.0732 10.0861C33.0736 10.4009 33.0119 10.7128 32.8916 11.0037C32.7713 11.2947 32.5948 11.559 32.3722 11.7816C32.1495 12.0043 31.8852 12.1808 31.5942 12.3011C31.3033 12.4214 30.9915 12.4831 30.6766 12.4827Z" fill="url(#paint0_radial)"/>
</g>
<defs>
<radialGradient id="paint0_radial" cx="0" cy="0" r="1" gradientUnits="userSpaceOnUse" gradientTransform="translate(10.6251 43.8492) rotate(-90) scale(39.643)">
<stop stop-color="#FFDD55"/>
<stop offset="0.1" stop-color="#FFDD55"/>
<stop offset="0.5" stop-color="#FF543E"/>
<stop offset="1" stop-color="#C837AB"/>
</radialGradient>
</defs>
</svg>
