<svg width="150" height="86" viewBox="0 0 150 86" fill="none" xmlns="http://www.w3.org/2000/svg">
<g clip-path="url(#clip0)">
<path d="M141.612 1.19897H8.38816C4.02802 1.19897 0.493423 4.72111 0.493423 9.06589V77.2868C0.493423 81.6315 4.02802 85.1537 8.38816 85.1537H141.612C145.972 85.1537 149.507 81.6315 149.507 77.2868V9.06589C149.507 4.72111 145.972 1.19897 141.612 1.19897Z" stroke="url(#paint0_linear)" stroke-width="2"/>
<path d="M25.6675 32.8536H17.5853V31.6833H34.855V32.8536H26.8419V55.7758H25.6675V32.8536ZM38.4943 31.6833H39.7723V55.7758H38.4943V31.6833ZM68.2934 31.6833V55.7758H67.0155V32.8536H66.7046L58.0697 55.0186H56.2737L47.6041 32.8536H47.3278V55.7758H46.0499V31.6833H48.6403L57.1717 53.573L65.703 31.6833H68.2934ZM75.9306 32.8191V43.7296H86.7415V44.8653H75.9306V55.7758H74.6526V31.6833H88.503V32.8191H75.9306ZM105.753 54.6056V55.7758H92.7321V31.6833H94.01V54.6056H105.753ZM109.462 31.6833H110.74V55.7758H109.462V31.6833ZM122.544 43.7984L114.738 31.6833H116.223L123.373 42.9379L130.557 31.6833H132.042L124.271 43.8672L132.042 55.7758H130.557L123.442 44.6933L116.223 55.7758H114.738L122.544 43.7984Z" fill="url(#paint1_linear)"/>
</g>
<defs>
<linearGradient id="paint0_linear" x1="75" y1="1.69066" x2="75" y2="86.9975" gradientUnits="userSpaceOnUse">
<stop stop-color="white"/>
<stop offset="1" stop-color="white" stop-opacity="0"/>
</linearGradient>
<linearGradient id="paint1_linear" x1="0.986844" y1="84.9369" x2="158.546" y2="58.3636" gradientUnits="userSpaceOnUse">
<stop stop-color="#4395C8"/>
<stop offset="1" stop-color="#D6E4F7"/>
</linearGradient>
<clipPath id="clip0">
<rect width="150" height="85.061" fill="white" transform="translate(0 0.707275)"/>
</clipPath>
</defs>
</svg>
