<svg width="40" height="41" viewBox="0 0 40 41" fill="none" xmlns="http://www.w3.org/2000/svg">
<path d="M15.6048 24.7602C14.4919 24.7602 13.5968 23.8651 13.5968 22.7764C13.5968 21.6635 14.4919 20.7683 15.6048 20.7683C16.7016 20.7683 17.5887 21.6635 17.5887 22.7764C17.5887 23.8731 16.6935 24.7602 15.6048 24.7602ZM40 20.7683C40 31.8167 31.0484 40.7683 20 40.7683C8.95161 40.7683 0 31.8167 0 20.7683C0 9.71992 8.95161 0.768311 20 0.768311C31.0484 0.768311 40 9.71992 40 20.7683ZM29.3306 17.4457C28.5726 17.4457 27.9032 17.7602 27.4113 18.2522C25.6048 17.0022 23.1694 16.1957 20.4677 16.107L21.871 9.7925L26.3387 10.8006C26.3387 11.8973 27.2339 12.7844 28.3226 12.7844C29.4355 12.7844 30.3306 11.8731 30.3306 10.7764C30.3306 9.6796 29.4355 8.76831 28.3226 8.76831C27.5403 8.76831 26.871 9.23605 26.5403 9.88121L21.6048 8.78444C21.3629 8.71992 21.1129 8.89734 21.0484 9.13928L19.5081 16.107C16.8306 16.2199 14.4194 17.0183 12.6129 18.2683C12.121 17.7522 11.4274 17.4457 10.6694 17.4457C7.85484 17.4457 6.93548 21.228 9.50806 22.5102C9.41935 22.9135 9.37097 23.3328 9.37097 23.7602C9.37097 28.0022 14.1452 31.4377 20.0161 31.4377C25.9113 31.4377 30.6855 28.0022 30.6855 23.7602C30.6855 23.3328 30.6371 22.8893 30.5323 22.4861C33.0564 21.1957 32.129 17.4457 29.3306 17.4457ZM23.7742 26.8167C22.3064 28.2844 17.6371 28.2602 16.2258 26.8167C16.0484 26.6393 15.7339 26.6393 15.5565 26.8167C15.3548 27.0183 15.3548 27.3328 15.5565 27.5102C17.3952 29.349 22.5968 29.349 24.4435 27.5102C24.6452 27.3328 24.6452 27.0183 24.4435 26.8167C24.2661 26.6393 23.9516 26.6393 23.7742 26.8167ZM24.3952 20.7683C23.2984 20.7683 22.4113 21.6635 22.4113 22.7764C22.4113 23.8731 23.3065 24.7602 24.3952 24.7602C25.5081 24.7602 26.4032 23.8651 26.4032 22.7764C26.4032 21.6635 25.5161 20.7683 24.3952 20.7683Z" fill="#FF4500"/>
</svg>
