<svg width="40" height="41" viewBox="0 0 40 41" fill="none" xmlns="http://www.w3.org/2000/svg">
<path d="M20 0.768311C8.95536 0.768311 0 9.72367 0 20.7683C0 31.813 8.95536 40.7683 20 40.7683C31.0446 40.7683 40 31.813 40 20.7683C40 9.72367 31.0446 0.768311 20 0.768311ZM29.6116 15.8442C29.625 16.054 29.625 16.2728 29.625 16.4871C29.625 23.0406 24.6339 30.5897 15.5134 30.5897C12.7009 30.5897 10.0938 29.7728 7.89732 28.3665C8.29911 28.4112 8.68304 28.429 9.09375 28.429C11.4152 28.429 13.5491 27.6433 15.25 26.313C13.0714 26.2683 11.2411 24.8397 10.6161 22.8755C11.3795 22.9871 12.067 22.9871 12.8527 22.7862C11.7309 22.5583 10.7227 21.949 9.99918 21.062C9.2757 20.1749 8.88164 19.0648 8.88393 17.9201V17.8576C9.54018 18.2281 10.3125 18.4558 11.1205 18.4871C10.4413 18.0344 9.88419 17.421 9.49871 16.7015C9.11323 15.9819 8.91127 15.1784 8.91072 14.3621C8.91072 13.438 9.15179 12.5942 9.58482 11.8621C10.8299 13.3948 12.3836 14.6484 14.1449 15.5414C15.9062 16.4343 17.8358 16.9467 19.808 17.0451C19.1071 13.6746 21.625 10.9469 24.6518 10.9469C26.0804 10.9469 27.3661 11.5451 28.2723 12.5094C29.3929 12.2996 30.4643 11.8799 31.4196 11.3174C31.0491 12.4647 30.2723 13.4335 29.2411 14.0451C30.2411 13.938 31.2054 13.6612 32.0982 13.2728C31.4241 14.2638 30.5804 15.1433 29.6116 15.8442Z" fill="#55ACEE"/>
</svg>
